<svg width="136" height="122" viewBox="0 0 136 122" fill="none" xmlns="http://www.w3.org/2000/svg">
<path fill-rule="evenodd" clip-rule="evenodd" d="M20.6226 100.42L25.0027 108V108.01H110.312L114.583 100.43H29.3752L32.6617 94.7401H117.963L122.343 87.17H37.0343L40.315 81.4901H94.9871L94.9929 81.5001L94.9985 81.4901H125.607L125.613 81.5001L129.993 73.92L129.99 73.9148L129.993 73.91H129.987L87.3577 0.0458137L87.3726 0.02002L87.3428 0.0200198L78.6226 0.02002L20.6226 100.42ZM82.9761 7.63153L79.688 13.3243L114.667 73.91H121.232L82.9761 7.63153ZM75.313 20.8986L72.0513 26.5455L99.3127 73.77L99.2345 73.91H105.919L75.313 20.8986ZM67.6743 34.1234L44.6933 73.91H90.6163L67.6743 34.1234ZM33.8262 2.03064C36.1294 0.699948 38.7426 -0.000457529 41.4026 0L2.03247 68.2C0.700923 65.8957 0 63.2814 0 60.6201C0 57.9587 0.700923 55.3443 2.03247 53.04L28.2825 7.58002C29.6107 5.27535 31.5229 3.36133 33.8262 2.03064ZM47.9727 0H56.7227L9.69263 81.47L5.3125 73.89L47.9727 0ZM63.2825 0H72.0227L17.3425 94.72L12.9727 87.15L63.2825 0ZM133.363 68.08C134.665 65.8167 135.35 63.2511 135.35 60.64C135.35 58.0288 134.665 55.4634 133.363 53.2L106.953 7.46002C105.646 5.19814 103.767 3.3199 101.504 2.01398C99.2416 0.708055 96.6751 0.0204111 94.0627 0.0200198H93.8928L133.273 68.23L133.363 68.08ZM106.923 113.69H28.2825C29.6059 116.003 31.5157 117.926 33.8191 119.265C36.1224 120.605 38.7381 121.313 41.4026 121.32H93.9526C96.5973 121.315 99.1929 120.605 101.472 119.264C103.752 117.923 105.633 115.999 106.923 113.69Z" fill="url(#paint0_linear_8_722)"/>
<defs>
<linearGradient id="paint0_linear_8_722" x1="26" y1="121" x2="108" y2="1.2065e-06" gradientUnits="userSpaceOnUse">
<stop offset="0.01" stop-color="#241CB5"/>
<stop offset="1" stop-color="#38C7F7"/>
</linearGradient>
</defs>
</svg>
